<?xml version="1.0" encoding="UTF-8"?>
<svg xmlns="http://www.w3.org/2000/svg" xmlns:xlink="http://www.w3.org/1999/xlink" width="252pt" height="252pt" viewBox="0 0 252 252" version="1.1">
<g id="surface1">
<path style=" stroke:none;fill-rule:nonzero;fill:rgb(0%,47.45098%,76.470588%);fill-opacity:1;" d="M 126.003906 252 C 56.523438 252 0 195.476562 0 126.003906 C 0 56.523438 56.523438 0 126.003906 0 C 195.476562 0 252.007812 56.523438 252.007812 126.003906 C 252 195.476562 195.476562 252 126.003906 252 M 126.003906 4.113281 C 58.792969 4.113281 4.105469 58.792969 4.105469 126.003906 C 4.105469 193.214844 58.785156 247.894531 125.996094 247.894531 C 193.207031 247.894531 247.886719 193.214844 247.886719 126.003906 C 247.894531 58.792969 193.207031 4.113281 126.003906 4.113281 "/>
<path style=" stroke:none;fill-rule:nonzero;fill:rgb(0%,47.45098%,76.470588%);fill-opacity:1;" d="M 124.761719 57.710938 C 125.96875 56.011719 130.058594 53.21875 136.625 50.003906 C 136.625 50.003906 71.546875 66.371094 63.984375 108.992188 C 56.675781 150.160156 90.011719 174.011719 121.492188 157.597656 C 132.945312 151.625 136.695312 137.6875 135.828125 128.359375 C 134.933594 118.773438 129.996094 114.441406 129.996094 114.441406 C 129.996094 114.441406 138.917969 132.523438 120.292969 144.535156 C 104.609375 154.65625 81.148438 139.691406 85.539062 120.488281 C 87.65625 111.246094 92.710938 96.824219 114.625 84.699219 C 114.625 84.699219 113.777344 84.519531 112.410156 84.613281 C 111.371094 84.691406 112.894531 83.332031 112.894531 83.332031 C 112.894531 83.332031 117.8125 79.429688 120.804688 78.480469 L 118.367188 78.378906 C 118.367188 78.378906 117.683594 78.171875 118.078125 77.476562 C 118.714844 76.328125 120.683594 74.835938 122.664062 73.855469 C 122.664062 73.855469 120.414062 74.195312 117.882812 75.269531 C 115.347656 76.339844 115.050781 73.660156 116.027344 72.25 C 116.929688 70.953125 124.074219 64.714844 129.605469 61.875 C 129.605469 61.875 126.753906 62.082031 126.277344 61.492188 C 125.382812 60.390625 126.84375 59.148438 128.230469 58.679688 C 128.230469 58.679688 125.691406 59.386719 124.621094 59.183594 C 124.210938 59.089844 124.1875 58.527344 124.761719 57.710938 "/>
<path style=" stroke:none;fill-rule:nonzero;fill:rgb(0%,47.45098%,76.470588%);fill-opacity:1;" d="M 133.464844 110.574219 C 133.464844 110.574219 165.746094 117.386719 160.078125 144.332031 C 154.726562 169.78125 127.601562 174.34375 113.183594 174.394531 C 113.183594 174.394531 112.113281 175.101562 113.589844 175.101562 C 115.058594 175.101562 127.796875 175.855469 132.222656 174.71875 C 132.222656 174.71875 130.933594 176.613281 132.777344 176.808594 C 134.621094 176.996094 129.453125 179.46875 127.609375 179.65625 C 125.765625 179.84375 131.484375 180.605469 133.328125 180.605469 C 135.171875 180.605469 130.933594 182.316406 130.191406 182.695312 C 129.453125 183.078125 137.753906 183.078125 139.972656 182.894531 C 142.183594 182.695312 135.359375 187.074219 131.671875 187.644531 C 127.984375 188.210938 133.703125 188.976562 134.441406 188.976562 C 135.179688 188.976562 124.847656 192.390625 120.234375 192.773438 C 115.621094 193.15625 171.15625 197.328125 179.824219 151.554688 C 187.03125 113.460938 133.464844 110.574219 133.464844 110.574219 "/>
<path style=" stroke:none;fill-rule:nonzero;fill:rgb(0%,47.45098%,76.470588%);fill-opacity:1;" d="M 142.308594 107.472656 C 142.394531 107.472656 142.488281 107.464844 142.566406 107.464844 L 141.867188 107.445312 C 139.148438 107.199219 132.742188 105.519531 130.125 103.417969 C 127.183594 101.066406 126.292969 84.894531 126.292969 84.894531 C 126.292969 84.894531 125.367188 101.066406 122.425781 103.417969 C 119.808594 105.519531 113.410156 107.199219 110.683594 107.445312 L 109.988281 107.464844 C 110.054688 107.464844 110.15625 107.464844 110.242188 107.472656 C 110.15625 107.472656 110.0625 107.480469 109.988281 107.480469 L 110.429688 107.480469 C 112.996094 107.632812 119.734375 109.367188 122.425781 111.523438 C 125.367188 113.878906 126.257812 130.050781 126.257812 130.050781 C 126.257812 130.050781 127.183594 113.878906 130.125 111.523438 C 132.828125 109.359375 139.566406 107.632812 142.125 107.480469 L 142.566406 107.480469 C 142.496094 107.480469 142.394531 107.472656 142.308594 107.472656 "/>
<path style=" stroke:none;fill-rule:nonzero;fill:rgb(0%,47.45098%,76.470588%);fill-opacity:1;" d="M 136.054688 117.253906 C 136.105469 117.304688 136.167969 117.363281 136.21875 117.40625 L 135.800781 116.972656 C 134.246094 115.210938 131.058594 110.582031 130.355469 108.101562 C 129.566406 105.304688 135.894531 97.878906 135.894531 97.878906 C 135.894531 97.878906 128.453125 104.199219 125.65625 103.402344 C 123.167969 102.695312 118.542969 99.511719 116.785156 97.957031 L 116.351562 97.539062 C 116.394531 97.582031 116.453125 97.648438 116.503906 97.699219 C 116.445312 97.648438 116.386719 97.589844 116.34375 97.546875 L 116.613281 97.820312 C 118.109375 99.449219 121.484375 104.292969 122.207031 106.859375 C 122.996094 109.65625 116.664062 117.082031 116.664062 117.082031 C 116.664062 117.082031 124.101562 110.769531 126.90625 111.558594 C 129.472656 112.28125 134.316406 115.65625 135.945312 117.148438 L 136.21875 117.421875 C 136.167969 117.363281 136.105469 117.304688 136.054688 117.253906 "/>
<path style=" stroke:none;fill-rule:nonzero;fill:rgb(0%,47.45098%,76.470588%);fill-opacity:1;" d="M 25.578125 140.238281 L 21.835938 140.601562 L 21.804688 140.304688 C 22.515625 140.136719 23.070312 139.914062 23.46875 139.625 C 23.867188 139.335938 24.175781 138.953125 24.378906 138.46875 C 24.582031 137.992188 24.660156 137.5 24.617188 137.015625 C 24.566406 136.464844 24.34375 136.023438 23.96875 135.691406 C 23.597656 135.359375 23.195312 135.214844 22.765625 135.257812 C 22.433594 135.292969 22.144531 135.4375 21.898438 135.691406 C 21.53125 136.054688 21.074219 136.898438 20.527344 138.207031 C 20.085938 139.269531 19.738281 140 19.484375 140.398438 C 19.230469 140.796875 18.914062 141.113281 18.539062 141.359375 C 18.167969 141.597656 17.765625 141.742188 17.335938 141.785156 C 16.519531 141.867188 15.777344 141.613281 15.125 141.035156 C 14.46875 140.457031 14.089844 139.667969 13.996094 138.671875 C 13.960938 138.359375 13.960938 138.0625 13.976562 137.78125 C 13.984375 137.613281 14.054688 137.261719 14.171875 136.726562 C 14.292969 136.191406 14.34375 135.851562 14.328125 135.714844 C 14.308594 135.582031 14.257812 135.480469 14.171875 135.410156 C 14.089844 135.34375 13.917969 135.300781 13.664062 135.28125 L 13.636719 134.984375 L 17.351562 134.621094 L 17.386719 134.917969 C 16.621094 135.128906 16.058594 135.375 15.695312 135.648438 C 15.328125 135.921875 15.046875 136.3125 14.835938 136.8125 C 14.632812 137.324219 14.546875 137.859375 14.605469 138.4375 C 14.675781 139.097656 14.894531 139.609375 15.285156 139.957031 C 15.675781 140.304688 16.109375 140.457031 16.585938 140.414062 C 16.851562 140.390625 17.113281 140.289062 17.367188 140.117188 C 17.625 139.949219 17.851562 139.691406 18.054688 139.363281 C 18.191406 139.140625 18.480469 138.539062 18.90625 137.558594 C 19.332031 136.582031 19.679688 135.886719 19.953125 135.460938 C 20.222656 135.035156 20.527344 134.707031 20.886719 134.46875 C 21.234375 134.230469 21.632812 134.085938 22.085938 134.042969 C 22.867188 133.964844 23.5625 134.195312 24.183594 134.738281 C 24.804688 135.273438 25.160156 136.015625 25.246094 136.929688 C 25.304688 137.507812 25.21875 138.128906 25 138.800781 C 24.898438 139.117188 24.855469 139.328125 24.863281 139.457031 C 24.878906 139.589844 24.929688 139.703125 25.015625 139.785156 C 25.109375 139.863281 25.277344 139.921875 25.535156 139.949219 Z M 25.578125 140.238281 "/>
<path style=" stroke:none;fill-rule:nonzero;fill:rgb(0%,47.45098%,76.470588%);fill-opacity:1;" d="M 21.023438 145.121094 L 22.058594 150.066406 L 25.101562 149.429688 C 25.644531 149.3125 26 149.210938 26.152344 149.097656 C 26.273438 149.023438 26.367188 148.886719 26.417969 148.699219 C 26.492188 148.453125 26.511719 148.199219 26.460938 147.945312 L 26.382812 147.570312 L 26.671875 147.511719 L 27.632812 152.066406 L 27.34375 152.125 L 27.265625 151.75 C 27.214844 151.503906 27.105469 151.273438 26.9375 151.070312 C 26.816406 150.917969 26.664062 150.832031 26.484375 150.808594 C 26.296875 150.78125 25.949219 150.824219 25.421875 150.933594 L 18.558594 152.378906 C 18.023438 152.488281 17.675781 152.601562 17.511719 152.703125 C 17.394531 152.789062 17.300781 152.914062 17.242188 153.09375 C 17.164062 153.347656 17.148438 153.601562 17.207031 153.859375 L 17.285156 154.230469 L 16.996094 154.300781 L 16.035156 149.746094 L 16.324219 149.6875 L 16.40625 150.058594 C 16.5 150.492188 16.695312 150.78125 16.996094 150.925781 C 17.191406 151.019531 17.605469 151.003906 18.242188 150.867188 L 21.480469 150.1875 L 20.445312 145.242188 L 17.199219 145.921875 C 16.664062 146.03125 16.316406 146.140625 16.152344 146.246094 C 16.035156 146.320312 15.941406 146.457031 15.890625 146.644531 C 15.8125 146.898438 15.796875 147.144531 15.847656 147.398438 L 15.933594 147.78125 L 15.632812 147.851562 L 14.675781 143.289062 L 14.964844 143.226562 L 15.039062 143.601562 C 15.132812 144.042969 15.328125 144.332031 15.625 144.476562 C 15.820312 144.570312 16.238281 144.546875 16.875 144.410156 L 23.742188 142.964844 C 24.285156 142.84375 24.632812 142.742188 24.792969 142.632812 C 24.914062 142.558594 25.007812 142.421875 25.066406 142.242188 C 25.144531 141.988281 25.160156 141.734375 25.101562 141.484375 L 25.023438 141.113281 L 25.3125 141.050781 L 26.273438 145.617188 L 25.984375 145.675781 L 25.898438 145.292969 C 25.847656 145.039062 25.738281 144.816406 25.566406 144.613281 C 25.449219 144.46875 25.296875 144.382812 25.117188 144.359375 C 24.929688 144.332031 24.582031 144.375 24.054688 144.484375 Z M 21.023438 145.121094 "/>
<path style=" stroke:none;fill-rule:nonzero;fill:rgb(0%,47.45098%,76.470588%);fill-opacity:1;" d="M 22.875 160.722656 L 21.574219 156.722656 L 19.714844 156.550781 C 19.253906 156.507812 18.921875 156.515625 18.726562 156.585938 C 18.566406 156.636719 18.457031 156.753906 18.386719 156.941406 C 18.320312 157.128906 18.34375 157.476562 18.472656 157.988281 L 18.191406 158.082031 L 17.140625 154.828125 L 17.417969 154.734375 C 17.640625 155.140625 17.828125 155.386719 17.988281 155.472656 C 18.320312 155.652344 18.90625 155.777344 19.757812 155.855469 L 29.449219 156.730469 L 29.535156 156.992188 L 22.09375 163.382812 C 21.496094 163.902344 21.132812 164.308594 21.003906 164.605469 C 20.878906 164.914062 20.867188 165.277344 20.980469 165.703125 L 20.699219 165.796875 L 19.375 161.71875 L 19.652344 161.625 C 19.808594 162.03125 19.96875 162.285156 20.128906 162.390625 C 20.292969 162.5 20.460938 162.523438 20.632812 162.464844 C 20.851562 162.398438 21.175781 162.175781 21.589844 161.820312 Z M 23.367188 160.324219 L 26.976562 157.214844 L 22.210938 156.773438 Z M 23.367188 160.324219 "/>
<path style=" stroke:none;fill-rule:nonzero;fill:rgb(0%,47.45098%,76.470588%);fill-opacity:1;" d="M 30.675781 161.523438 L 31.855469 164.222656 L 27.054688 173.589844 L 32.800781 171.074219 C 33.410156 170.800781 33.769531 170.570312 33.851562 170.367188 C 33.980469 170.097656 33.953125 169.765625 33.785156 169.375 L 33.632812 169.023438 L 33.902344 168.90625 L 35.425781 172.375 L 35.152344 172.492188 L 35 172.144531 C 34.8125 171.71875 34.558594 171.480469 34.226562 171.421875 C 34.023438 171.378906 33.640625 171.480469 33.078125 171.726562 L 24.683594 175.40625 L 24.566406 175.144531 L 29.707031 165.066406 L 23.570312 167.75 C 22.960938 168.023438 22.609375 168.253906 22.507812 168.457031 C 22.382812 168.726562 22.40625 169.058594 22.578125 169.449219 L 22.730469 169.808594 L 22.457031 169.925781 L 20.9375 166.460938 L 21.207031 166.339844 L 21.363281 166.6875 C 21.546875 167.113281 21.8125 167.359375 22.144531 167.417969 C 22.347656 167.460938 22.730469 167.359375 23.289062 167.113281 L 30.214844 164.078125 C 30.429688 163.636719 30.554688 163.324219 30.597656 163.128906 C 30.640625 162.933594 30.648438 162.667969 30.605469 162.339844 C 30.589844 162.175781 30.523438 161.957031 30.394531 161.660156 Z M 30.675781 161.523438 "/>
<path style=" stroke:none;fill-rule:nonzero;fill:rgb(0%,47.45098%,76.470588%);fill-opacity:1;" d="M 25.738281 177.265625 L 26 177.125 L 26.195312 177.480469 C 26.417969 177.878906 26.707031 178.089844 27.0625 178.117188 C 27.277344 178.132812 27.648438 177.988281 28.183594 177.691406 L 34.3125 174.257812 C 34.90625 173.929688 35.238281 173.65625 35.3125 173.445312 C 35.417969 173.144531 35.363281 172.816406 35.167969 172.457031 L 34.964844 172.101562 L 35.230469 171.957031 L 37.386719 175.816406 C 38.175781 177.234375 38.628906 178.398438 38.714844 179.324219 C 38.804688 180.242188 38.601562 181.132812 38.101562 182.007812 C 37.601562 182.875 36.859375 183.589844 35.875 184.140625 C 34.550781 184.882812 33.222656 185.09375 31.890625 184.789062 C 30.402344 184.4375 29.136719 183.351562 28.109375 181.507812 Z M 27.9375 179.585938 C 28.140625 180.25 28.355469 180.785156 28.574219 181.183594 C 29.179688 182.265625 30.0625 182.953125 31.226562 183.242188 C 32.382812 183.53125 33.613281 183.308594 34.914062 182.578125 C 36.222656 181.847656 37.066406 180.914062 37.414062 179.773438 C 37.769531 178.636719 37.632812 177.515625 37.003906 176.390625 C 36.765625 175.976562 36.4375 175.535156 36.003906 175.074219 Z M 27.9375 179.585938 "/>
<path style=" stroke:none;fill-rule:nonzero;fill:rgb(0%,47.45098%,76.470588%);fill-opacity:1;" d="M 44 186.019531 C 44.804688 187.175781 45.070312 188.484375 44.78125 189.953125 C 44.492188 191.414062 43.691406 192.605469 42.375 193.523438 C 41.023438 194.464844 39.597656 194.824219 38.109375 194.59375 C 36.621094 194.363281 35.449219 193.632812 34.609375 192.425781 C 33.75 191.195312 33.46875 189.859375 33.757812 188.414062 C 34.046875 186.972656 34.890625 185.773438 36.273438 184.804688 C 37.695312 183.820312 39.179688 183.496094 40.753906 183.835938 C 42.101562 184.125 43.183594 184.855469 44 186.019531 M 43.429688 186.230469 C 42.875 185.433594 42.128906 185 41.203125 184.933594 C 40.046875 184.847656 38.753906 185.296875 37.335938 186.28125 C 35.875 187.300781 34.972656 188.390625 34.625 189.5625 C 34.363281 190.457031 34.507812 191.296875 35.050781 192.078125 C 35.636719 192.917969 36.445312 193.378906 37.472656 193.472656 C 38.507812 193.566406 39.722656 193.113281 41.132812 192.136719 C 42.664062 191.074219 43.589844 189.980469 43.921875 188.859375 C 44.195312 187.957031 44.023438 187.082031 43.429688 186.230469 "/>
<path style=" stroke:none;fill-rule:nonzero;fill:rgb(0%,47.45098%,76.470588%);fill-opacity:1;" d="M 46.378906 190.003906 L 48.296875 192.238281 L 46.445312 202.597656 L 51.203125 198.511719 C 51.707031 198.078125 51.976562 197.746094 52.003906 197.523438 C 52.035156 197.226562 51.925781 196.921875 51.644531 196.589844 L 51.398438 196.300781 L 51.621094 196.105469 L 54.085938 198.976562 L 53.863281 199.171875 L 53.609375 198.882812 C 53.3125 198.535156 52.988281 198.375 52.65625 198.417969 C 52.445312 198.441406 52.113281 198.644531 51.652344 199.046875 L 44.703125 205.019531 L 44.515625 204.796875 L 46.480469 193.660156 L 41.40625 198.027344 C 40.898438 198.460938 40.632812 198.789062 40.597656 199.003906 C 40.566406 199.300781 40.675781 199.613281 40.957031 199.9375 L 41.210938 200.226562 L 40.980469 200.421875 L 38.519531 197.550781 L 38.738281 197.355469 L 38.984375 197.644531 C 39.289062 198 39.605469 198.152344 39.945312 198.121094 C 40.148438 198.09375 40.488281 197.890625 40.949219 197.492188 L 46.683594 192.5625 C 46.761719 192.085938 46.785156 191.746094 46.769531 191.542969 C 46.75 191.347656 46.683594 191.09375 46.546875 190.785156 C 46.488281 190.632812 46.351562 190.4375 46.140625 190.199219 Z M 46.378906 190.003906 "/>
<path style=" stroke:none;fill-rule:nonzero;fill:rgb(0%,47.45098%,76.470588%);fill-opacity:1;" d="M 61.019531 205.113281 L 58.867188 207.804688 L 58.664062 207.621094 C 59.046875 206.804688 59.214844 206.082031 59.191406 205.460938 C 59.148438 204.558594 58.757812 203.769531 58.019531 203.074219 C 57.007812 202.121094 55.867188 201.800781 54.59375 202.105469 C 53.523438 202.359375 52.546875 202.953125 51.671875 203.890625 C 50.964844 204.644531 50.457031 205.46875 50.167969 206.371094 C 49.871094 207.269531 49.828125 208.085938 50.023438 208.816406 C 50.21875 209.546875 50.574219 210.152344 51.066406 210.628906 C 51.355469 210.898438 51.679688 211.128906 52.019531 211.308594 C 52.359375 211.492188 52.726562 211.628906 53.117188 211.722656 L 55.265625 209.4375 C 55.640625 209.039062 55.851562 208.75 55.902344 208.570312 C 55.960938 208.394531 55.953125 208.214844 55.886719 208.027344 C 55.816406 207.839844 55.628906 207.601562 55.308594 207.304688 L 55.511719 207.085938 L 58.578125 209.964844 L 58.367188 210.183594 L 58.222656 210.050781 C 57.917969 209.761719 57.621094 209.667969 57.3125 209.769531 C 57.101562 209.835938 56.796875 210.082031 56.394531 210.507812 L 54.117188 212.929688 C 53.445312 212.75 52.835938 212.515625 52.292969 212.214844 C 51.746094 211.917969 51.210938 211.519531 50.675781 211.019531 C 49.148438 209.582031 48.441406 207.992188 48.578125 206.269531 C 48.671875 204.96875 49.171875 203.847656 50.082031 202.878906 C 50.738281 202.179688 51.535156 201.671875 52.46875 201.347656 C 53.582031 200.964844 54.671875 200.890625 55.75 201.136719 C 56.652344 201.339844 57.492188 201.824219 58.28125 202.5625 C 58.570312 202.835938 58.808594 203.097656 59.003906 203.371094 C 59.199219 203.644531 59.429688 204.058594 59.71875 204.621094 C 59.863281 204.910156 59.964844 205.085938 60.039062 205.15625 C 60.117188 205.222656 60.210938 205.25 60.328125 205.230469 C 60.449219 205.214844 60.601562 205.105469 60.804688 204.917969 Z M 61.019531 205.113281 "/>
<path style=" stroke:none;fill-rule:nonzero;fill:rgb(0%,47.45098%,76.470588%);fill-opacity:1;" d="M 70.492188 212.886719 L 70.664062 212.640625 L 73.832031 214.824219 L 73.660156 215.070312 L 73.320312 214.84375 C 72.972656 214.59375 72.601562 214.5625 72.207031 214.722656 C 72.023438 214.800781 71.757812 215.078125 71.417969 215.582031 L 68.910156 219.210938 C 68.292969 220.109375 67.722656 220.738281 67.203125 221.113281 C 66.6875 221.488281 66.039062 221.664062 65.273438 221.664062 C 64.511719 221.65625 63.675781 221.351562 62.777344 220.730469 C 61.800781 220.058594 61.179688 219.378906 60.90625 218.691406 C 60.636719 218.003906 60.59375 217.296875 60.773438 216.582031 C 60.898438 216.089844 61.339844 215.308594 62.082031 214.230469 L 64.492188 210.730469 C 64.875 210.175781 65.046875 209.769531 65.011719 209.488281 C 64.976562 209.21875 64.789062 208.960938 64.460938 208.722656 L 64.121094 208.496094 L 64.289062 208.25 L 68.15625 210.917969 L 67.984375 211.164062 L 67.644531 210.925781 C 67.28125 210.667969 66.933594 210.601562 66.609375 210.730469 C 66.386719 210.8125 66.109375 211.101562 65.757812 211.605469 L 63.066406 215.503906 C 62.828125 215.851562 62.582031 216.269531 62.335938 216.761719 C 62.089844 217.253906 61.960938 217.679688 61.960938 218.054688 C 61.953125 218.417969 62.054688 218.792969 62.257812 219.175781 C 62.460938 219.558594 62.792969 219.90625 63.246094 220.21875 C 63.832031 220.628906 64.441406 220.859375 65.078125 220.925781 C 65.71875 220.992188 66.261719 220.882812 66.703125 220.601562 C 67.144531 220.324219 67.695312 219.703125 68.351562 218.75 L 70.847656 215.132812 C 71.230469 214.570312 71.417969 214.179688 71.382812 213.949219 C 71.351562 213.636719 71.164062 213.363281 70.816406 213.132812 Z M 70.492188 212.886719 "/>
<path style=" stroke:none;fill-rule:nonzero;fill:rgb(0%,47.45098%,76.470588%);fill-opacity:1;" d="M 72.785156 214.230469 L 75.386719 215.613281 L 77.417969 225.9375 L 80.367188 220.40625 C 80.679688 219.8125 80.808594 219.414062 80.757812 219.191406 C 80.6875 218.902344 80.46875 218.65625 80.085938 218.453125 L 79.753906 218.273438 L 79.890625 218.011719 L 83.230469 219.789062 L 83.085938 220.050781 L 82.746094 219.871094 C 82.335938 219.652344 81.988281 219.625 81.683594 219.777344 C 81.496094 219.871094 81.265625 220.195312 80.976562 220.730469 L 76.660156 228.820312 L 76.40625 228.683594 L 74.195312 217.585938 L 71.042969 223.492188 C 70.730469 224.078125 70.59375 224.476562 70.644531 224.699219 C 70.722656 224.996094 70.941406 225.234375 71.316406 225.4375 L 71.65625 225.617188 L 71.519531 225.878906 L 68.179688 224.105469 L 68.324219 223.839844 L 68.65625 224.019531 C 69.066406 224.238281 69.421875 224.273438 69.726562 224.113281 C 69.914062 224.019531 70.152344 223.695312 70.433594 223.160156 L 73.992188 216.492188 C 73.882812 216.015625 73.789062 215.691406 73.703125 215.503906 C 73.621094 215.328125 73.457031 215.113281 73.21875 214.875 C 73.109375 214.757812 72.914062 214.628906 72.632812 214.476562 Z M 72.785156 214.230469 "/>
<path style=" stroke:none;fill-rule:nonzero;fill:rgb(0%,47.45098%,76.470588%);fill-opacity:1;" d="M 83.253906 231.15625 L 83.136719 231.429688 L 78.855469 229.59375 L 78.972656 229.320312 L 79.328125 229.472656 C 79.746094 229.652344 80.09375 229.660156 80.382812 229.5 C 80.570312 229.398438 80.789062 229.039062 81.046875 228.4375 L 83.816406 221.980469 C 84.027344 221.476562 84.148438 221.128906 84.148438 220.933594 C 84.148438 220.789062 84.097656 220.636719 83.976562 220.492188 C 83.808594 220.28125 83.613281 220.128906 83.375 220.023438 L 83.015625 219.871094 L 83.136719 219.601562 L 87.417969 221.4375 L 87.300781 221.707031 L 86.933594 221.554688 C 86.527344 221.375 86.179688 221.375 85.890625 221.539062 C 85.703125 221.640625 85.472656 221.996094 85.21875 222.589844 L 82.449219 229.050781 C 82.226562 229.558594 82.117188 229.898438 82.109375 230.09375 C 82.109375 230.238281 82.160156 230.382812 82.277344 230.542969 C 82.4375 230.757812 82.636719 230.910156 82.871094 231.011719 Z M 83.253906 231.15625 "/>
<path style=" stroke:none;fill-rule:nonzero;fill:rgb(0%,47.45098%,76.470588%);fill-opacity:1;" d="M 98.039062 225.113281 L 97.945312 225.394531 C 97.554688 225.335938 97.242188 225.363281 97.003906 225.472656 C 96.65625 225.632812 96.289062 225.929688 95.90625 226.371094 L 89.382812 233.953125 L 89.101562 233.859375 L 88.199219 223.679688 C 88.15625 223.160156 88.105469 222.828125 88.066406 222.703125 C 87.988281 222.507812 87.878906 222.328125 87.714844 222.175781 C 87.5625 222.03125 87.332031 221.886719 87.027344 221.757812 L 87.121094 221.476562 L 91.335938 222.890625 L 91.242188 223.167969 C 90.75 223.058594 90.410156 223.035156 90.230469 223.101562 C 90.054688 223.167969 89.933594 223.296875 89.867188 223.476562 C 89.78125 223.730469 89.765625 224.164062 89.816406 224.773438 L 90.417969 231.699219 L 94.84375 226.542969 C 95.277344 226.03125 95.535156 225.667969 95.609375 225.4375 C 95.660156 225.292969 95.636719 225.125 95.523438 224.945312 C 95.421875 224.757812 95.210938 224.589844 94.871094 224.410156 C 94.84375 224.394531 94.8125 224.375 94.75 224.339844 L 94.84375 224.0625 Z M 98.039062 225.113281 "/>
<path style=" stroke:none;fill-rule:nonzero;fill:rgb(0%,47.45098%,76.470588%);fill-opacity:1;" d="M 100.488281 226.1875 L 99.550781 230.382812 L 101.878906 230.902344 C 102.484375 231.039062 102.910156 231.039062 103.15625 230.902344 C 103.476562 230.722656 103.726562 230.332031 103.894531 229.738281 L 104.183594 229.804688 L 103.359375 233.492188 L 103.070312 233.433594 C 103.113281 232.898438 103.113281 232.550781 103.070312 232.386719 C 103.019531 232.183594 102.902344 232.007812 102.703125 231.851562 C 102.519531 231.699219 102.195312 231.574219 101.753906 231.480469 L 99.425781 230.960938 L 98.644531 234.460938 C 98.542969 234.929688 98.5 235.21875 98.515625 235.328125 C 98.53125 235.4375 98.59375 235.53125 98.6875 235.617188 C 98.78125 235.703125 98.964844 235.777344 99.265625 235.839844 L 101.066406 236.238281 C 101.667969 236.375 102.109375 236.425781 102.398438 236.40625 C 102.6875 236.390625 102.984375 236.28125 103.292969 236.085938 C 103.691406 235.839844 104.125 235.421875 104.609375 234.84375 L 104.921875 234.914062 L 103.410156 237.367188 L 95.234375 235.542969 L 95.304688 235.253906 L 95.679688 235.335938 C 95.925781 235.386719 96.179688 235.386719 96.433594 235.320312 C 96.621094 235.277344 96.757812 235.175781 96.859375 235.023438 C 96.960938 234.871094 97.0625 234.539062 97.183594 234.019531 L 98.71875 227.128906 C 98.871094 226.457031 98.890625 226.023438 98.796875 225.835938 C 98.652344 225.582031 98.363281 225.414062 97.929688 225.308594 L 97.546875 225.226562 L 97.617188 224.9375 L 105.796875 226.761719 L 105.398438 229.117188 L 105.09375 229.050781 C 105.109375 228.464844 105.074219 228.054688 104.980469 227.816406 C 104.898438 227.578125 104.734375 227.375 104.496094 227.214844 C 104.3125 227.085938 103.945312 226.96875 103.417969 226.847656 Z M 100.488281 226.1875 "/>
<path style=" stroke:none;fill-rule:nonzero;fill:rgb(0%,47.45098%,76.470588%);fill-opacity:1;" d="M 115.765625 239.09375 L 112.882812 238.726562 L 109.875 233.222656 C 109.605469 233.195312 109.382812 233.171875 109.214844 233.152344 C 109.144531 233.144531 109.070312 233.136719 108.992188 233.121094 C 108.917969 233.101562 108.832031 233.09375 108.746094 233.078125 L 108.347656 236.210938 C 108.261719 236.890625 108.277344 237.324219 108.40625 237.503906 C 108.578125 237.765625 108.867188 237.921875 109.273438 237.972656 L 109.691406 238.023438 L 109.65625 238.320312 L 105.035156 237.734375 L 105.066406 237.4375 L 105.476562 237.488281 C 105.933594 237.546875 106.273438 237.4375 106.511719 237.164062 C 106.648438 237.011719 106.75 236.628906 106.828125 236.015625 L 107.71875 229.050781 C 107.804688 228.371094 107.785156 227.9375 107.660156 227.757812 C 107.480469 227.496094 107.191406 227.339844 106.785156 227.289062 L 106.375 227.238281 L 106.410156 226.941406 L 110.34375 227.441406 C 111.492188 227.585938 112.324219 227.78125 112.84375 228.011719 C 113.359375 228.25 113.785156 228.617188 114.109375 229.109375 C 114.429688 229.609375 114.550781 230.164062 114.472656 230.78125 C 114.386719 231.445312 114.101562 231.996094 113.605469 232.421875 C 113.113281 232.855469 112.398438 233.121094 111.464844 233.203125 L 113.292969 236.585938 C 113.71875 237.359375 114.089844 237.886719 114.421875 238.167969 C 114.761719 238.445312 115.222656 238.660156 115.800781 238.796875 Z M 108.816406 232.566406 C 108.917969 232.574219 109 232.59375 109.078125 232.601562 C 109.15625 232.609375 109.214844 232.625 109.257812 232.625 C 110.285156 232.753906 111.089844 232.636719 111.667969 232.253906 C 112.246094 231.871094 112.578125 231.34375 112.671875 230.648438 C 112.757812 229.976562 112.621094 229.398438 112.246094 228.921875 C 111.882812 228.445312 111.347656 228.164062 110.648438 228.070312 C 110.34375 228.039062 109.917969 228.03125 109.382812 228.0625 Z M 108.816406 232.566406 "/>
<path style=" stroke:none;fill-rule:nonzero;fill:rgb(0%,47.45098%,76.470588%);fill-opacity:1;" d="M 123.710938 228.257812 L 123.546875 232.015625 L 123.25 231.996094 C 123.183594 231.277344 123.039062 230.6875 122.808594 230.253906 C 122.578125 229.8125 122.238281 229.464844 121.789062 229.195312 C 121.339844 228.921875 120.871094 228.777344 120.378906 228.75 C 119.828125 228.726562 119.359375 228.878906 118.976562 229.203125 C 118.59375 229.523438 118.398438 229.90625 118.382812 230.332031 C 118.367188 230.664062 118.476562 230.96875 118.6875 231.25 C 119.003906 231.667969 119.765625 232.234375 120.984375 232.957031 C 121.96875 233.542969 122.648438 233.996094 123.003906 234.300781 C 123.363281 234.605469 123.632812 234.964844 123.820312 235.371094 C 124.007812 235.769531 124.082031 236.195312 124.066406 236.628906 C 124.03125 237.453125 123.683594 238.148438 123.011719 238.710938 C 122.351562 239.28125 121.519531 239.542969 120.515625 239.5 C 120.199219 239.484375 119.902344 239.449219 119.632812 239.390625 C 119.46875 239.355469 119.128906 239.246094 118.613281 239.050781 C 118.101562 238.863281 117.769531 238.761719 117.632812 238.753906 C 117.5 238.746094 117.386719 238.785156 117.3125 238.863281 C 117.226562 238.941406 117.167969 239.101562 117.117188 239.347656 L 116.820312 239.339844 L 116.980469 235.609375 L 117.277344 235.617188 C 117.378906 236.40625 117.542969 236.992188 117.761719 237.394531 C 117.984375 237.792969 118.324219 238.125 118.796875 238.40625 C 119.273438 238.683594 119.792969 238.828125 120.371094 238.855469 C 121.035156 238.890625 121.570312 238.726562 121.976562 238.394531 C 122.375 238.066406 122.589844 237.65625 122.613281 237.171875 C 122.621094 236.910156 122.5625 236.628906 122.425781 236.355469 C 122.289062 236.078125 122.078125 235.8125 121.773438 235.566406 C 121.570312 235.398438 121.015625 235.03125 120.117188 234.46875 C 119.207031 233.910156 118.570312 233.46875 118.1875 233.136719 C 117.804688 232.804688 117.523438 232.457031 117.335938 232.074219 C 117.148438 231.691406 117.066406 231.277344 117.082031 230.824219 C 117.117188 230.042969 117.449219 229.390625 118.066406 228.84375 C 118.6875 228.308594 119.460938 228.054688 120.386719 228.097656 C 120.964844 228.121094 121.570312 228.292969 122.207031 228.597656 C 122.503906 228.742188 122.707031 228.820312 122.828125 228.828125 C 122.960938 228.835938 123.082031 228.792969 123.175781 228.71875 C 123.269531 228.640625 123.34375 228.472656 123.402344 228.226562 Z M 123.710938 228.257812 "/>
<path style=" stroke:none;fill-rule:nonzero;fill:rgb(0%,47.45098%,76.470588%);fill-opacity:1;" d="M 129.980469 239 L 129.988281 239.296875 L 125.332031 239.398438 L 125.324219 239.101562 L 125.707031 239.09375 C 126.15625 239.085938 126.480469 238.949219 126.675781 238.675781 C 126.804688 238.496094 126.855469 238.089844 126.835938 237.4375 L 126.675781 230.417969 C 126.667969 229.863281 126.625 229.507812 126.546875 229.328125 C 126.488281 229.203125 126.378906 229.082031 126.214844 228.988281 C 125.980469 228.863281 125.730469 228.8125 125.476562 228.8125 L 125.085938 228.820312 L 125.078125 228.523438 L 129.734375 228.421875 L 129.742188 228.71875 L 129.351562 228.726562 C 128.910156 228.734375 128.585938 228.871094 128.390625 229.144531 C 128.265625 229.320312 128.203125 229.730469 128.222656 230.382812 L 128.375 237.402344 C 128.390625 237.953125 128.433594 238.3125 128.503906 238.488281 C 128.5625 238.625 128.671875 238.734375 128.851562 238.828125 C 129.082031 238.949219 129.328125 239.007812 129.582031 239.007812 Z M 129.980469 239 "/>
<path style=" stroke:none;fill-rule:nonzero;fill:rgb(0%,47.45098%,76.470588%);fill-opacity:1;" d="M 139.082031 227.773438 L 139.402344 230.308594 L 139.097656 230.332031 C 139.003906 229.890625 138.894531 229.574219 138.785156 229.390625 C 138.597656 229.089844 138.359375 228.878906 138.070312 228.761719 C 137.78125 228.632812 137.414062 228.589844 136.964844 228.625 L 135.445312 228.75 L 136.117188 237.027344 C 136.167969 237.691406 136.277344 238.105469 136.429688 238.261719 C 136.652344 238.472656 136.972656 238.558594 137.390625 238.523438 L 137.765625 238.496094 L 137.789062 238.796875 L 133.191406 239.167969 L 133.167969 238.871094 L 133.550781 238.839844 C 134.007812 238.804688 134.324219 238.632812 134.492188 238.34375 C 134.59375 238.167969 134.621094 237.777344 134.578125 237.164062 L 133.90625 228.886719 L 132.605469 228.988281 C 132.097656 229.03125 131.738281 229.101562 131.535156 229.183594 C 131.265625 229.304688 131.042969 229.523438 130.875 229.824219 C 130.695312 230.128906 130.609375 230.527344 130.617188 231.019531 L 130.3125 231.046875 L 130.234375 228.496094 Z M 139.082031 227.773438 "/>
<path style=" stroke:none;fill-rule:nonzero;fill:rgb(0%,47.45098%,76.470588%);fill-opacity:1;" d="M 146.339844 226.515625 L 150.066406 225.847656 L 150.121094 226.132812 L 149.914062 226.167969 C 149.777344 226.195312 149.59375 226.289062 149.347656 226.457031 C 149.109375 226.628906 148.894531 226.839844 148.726562 227.113281 C 148.546875 227.375 148.351562 227.792969 148.128906 228.359375 L 146.285156 232.890625 L 146.769531 235.574219 C 146.890625 236.230469 147.035156 236.628906 147.214844 236.765625 C 147.449219 236.953125 147.789062 237.003906 148.214844 236.925781 L 148.5625 236.867188 L 148.613281 237.15625 L 144.070312 237.980469 L 144.019531 237.683594 L 144.402344 237.613281 C 144.851562 237.53125 145.148438 237.332031 145.292969 237.027344 C 145.378906 236.839844 145.371094 236.441406 145.257812 235.847656 L 144.800781 233.316406 L 141.050781 229.363281 C 140.609375 228.90625 140.3125 228.617188 140.167969 228.503906 C 140.023438 228.394531 139.734375 228.285156 139.320312 228.164062 C 139.199219 228.132812 139.046875 228.132812 138.84375 228.175781 L 138.792969 227.886719 L 143.363281 227.0625 L 143.414062 227.351562 L 143.175781 227.390625 C 142.929688 227.433594 142.710938 227.535156 142.523438 227.691406 C 142.335938 227.84375 142.269531 228.039062 142.300781 228.265625 C 142.335938 228.453125 142.558594 228.769531 142.964844 229.203125 L 145.820312 232.242188 L 147.324219 228.566406 C 147.554688 228.011719 147.636719 227.613281 147.59375 227.375 C 147.570312 227.230469 147.511719 227.101562 147.410156 227 C 147.316406 226.898438 147.1875 226.832031 147.035156 226.789062 C 146.882812 226.746094 146.660156 226.753906 146.378906 226.804688 Z M 146.339844 226.515625 "/>
<path style=" stroke:none;fill-rule:nonzero;fill:rgb(0%,47.45098%,76.470588%);fill-opacity:1;" d="M 157.960938 223.136719 C 159.296875 222.683594 160.628906 222.804688 161.945312 223.484375 C 163.273438 224.171875 164.183594 225.277344 164.699219 226.789062 C 165.226562 228.351562 165.167969 229.824219 164.53125 231.183594 C 163.894531 232.550781 162.863281 233.46875 161.460938 233.945312 C 160.042969 234.417969 158.683594 234.316406 157.375 233.636719 C 156.074219 232.949219 155.148438 231.8125 154.613281 230.214844 C 154.0625 228.574219 154.171875 227.050781 154.9375 225.640625 C 155.609375 224.417969 156.609375 223.585938 157.960938 223.136719 M 158.003906 223.738281 C 157.078125 224.054688 156.457031 224.640625 156.136719 225.507812 C 155.726562 226.59375 155.796875 227.953125 156.355469 229.59375 C 156.925781 231.277344 157.714844 232.449219 158.742188 233.109375 C 159.527344 233.613281 160.375 233.714844 161.285156 233.410156 C 162.253906 233.085938 162.925781 232.441406 163.296875 231.472656 C 163.671875 230.503906 163.585938 229.210938 163.042969 227.578125 C 162.449219 225.8125 161.660156 224.613281 160.671875 223.984375 C 159.875 223.484375 158.988281 223.40625 158.003906 223.738281 "/>
<path style=" stroke:none;fill-rule:nonzero;fill:rgb(0%,47.45098%,76.470588%);fill-opacity:1;" d="M 165.933594 220.953125 L 167.699219 224.84375 L 169.5 224.027344 C 169.917969 223.839844 170.171875 223.609375 170.28125 223.339844 C 170.394531 223.066406 170.359375 222.652344 170.171875 222.082031 L 170.445312 221.960938 L 171.964844 225.308594 L 171.695312 225.429688 C 171.515625 225.046875 171.335938 224.792969 171.15625 224.648438 C 170.980469 224.511719 170.792969 224.433594 170.582031 224.417969 C 170.375 224.402344 170.105469 224.46875 169.773438 224.621094 L 167.972656 225.4375 L 169.382812 228.546875 C 169.613281 229.050781 169.789062 229.363281 169.925781 229.5 C 170.027344 229.601562 170.179688 229.652344 170.375 229.667969 C 170.640625 229.6875 170.894531 229.644531 171.125 229.542969 L 171.480469 229.378906 L 171.601562 229.652344 L 167.351562 231.582031 L 167.234375 231.308594 L 167.582031 231.148438 C 167.988281 230.960938 168.234375 230.707031 168.3125 230.382812 C 168.355469 230.179688 168.242188 229.769531 167.980469 229.175781 L 165.074219 222.777344 C 164.84375 222.277344 164.667969 221.960938 164.53125 221.828125 C 164.429688 221.726562 164.277344 221.664062 164.089844 221.648438 C 163.824219 221.621094 163.578125 221.664062 163.339844 221.777344 L 162.992188 221.9375 L 162.863281 221.664062 L 170.230469 218.316406 L 171.3125 220.449219 L 171.054688 220.570312 C 170.714844 220.167969 170.417969 219.890625 170.15625 219.753906 C 169.890625 219.609375 169.613281 219.550781 169.324219 219.566406 C 169.035156 219.582031 168.625 219.703125 168.117188 219.941406 Z M 165.933594 220.953125 "/>
<path style=" stroke:none;fill-rule:nonzero;fill:rgb(0%,47.45098%,76.470588%);fill-opacity:1;" d="M 181.304688 211.832031 L 182.75 213.941406 L 182.484375 214.101562 C 182.195312 213.753906 181.957031 213.523438 181.78125 213.414062 C 181.472656 213.234375 181.167969 213.160156 180.851562 213.183594 C 180.539062 213.203125 180.199219 213.328125 179.808594 213.566406 L 178.507812 214.375 L 182.882812 221.4375 C 183.234375 222.003906 183.511719 222.320312 183.726562 222.386719 C 184.015625 222.472656 184.335938 222.40625 184.703125 222.183594 L 185.027344 221.988281 L 185.179688 222.242188 L 181.261719 224.671875 L 181.109375 224.417969 L 181.441406 224.214844 C 181.832031 223.976562 182.035156 223.6875 182.050781 223.347656 C 182.058594 223.136719 181.90625 222.777344 181.585938 222.261719 L 177.207031 215.199219 L 176.09375 215.886719 C 175.660156 216.152344 175.382812 216.378906 175.238281 216.550781 C 175.050781 216.78125 174.957031 217.078125 174.9375 217.425781 C 174.921875 217.773438 175.023438 218.164062 175.253906 218.605469 L 174.992188 218.769531 L 173.757812 216.53125 Z M 181.304688 211.832031 "/>
<path style=" stroke:none;fill-rule:nonzero;fill:rgb(0%,47.45098%,76.470588%);fill-opacity:1;" d="M 184.097656 210.464844 L 186.691406 213.890625 L 188.59375 212.445312 C 189.085938 212.070312 189.359375 211.75 189.417969 211.46875 C 189.496094 211.101562 189.351562 210.667969 189.003906 210.152344 L 189.238281 209.972656 L 191.527344 212.988281 L 191.289062 213.167969 C 190.90625 212.792969 190.640625 212.566406 190.488281 212.496094 C 190.300781 212.402344 190.082031 212.386719 189.84375 212.429688 C 189.605469 212.472656 189.308594 212.632812 188.941406 212.914062 L 187.039062 214.359375 L 189.199219 217.210938 C 189.488281 217.59375 189.683594 217.816406 189.785156 217.875 C 189.878906 217.933594 189.988281 217.953125 190.117188 217.933594 C 190.234375 217.917969 190.421875 217.824219 190.660156 217.636719 L 192.128906 216.523438 C 192.621094 216.152344 192.945312 215.84375 193.125 215.613281 C 193.292969 215.378906 193.402344 215.078125 193.453125 214.730469 C 193.523438 214.265625 193.488281 213.660156 193.359375 212.921875 L 193.617188 212.726562 L 194.515625 215.472656 L 187.839844 220.527344 L 187.660156 220.289062 L 187.964844 220.058594 C 188.167969 219.90625 188.332031 219.710938 188.433594 219.472656 C 188.519531 219.304688 188.535156 219.125 188.476562 218.953125 C 188.425781 218.785156 188.238281 218.480469 187.914062 218.0625 L 183.648438 212.429688 C 183.234375 211.875 182.917969 211.578125 182.714844 211.535156 C 182.433594 211.476562 182.109375 211.585938 181.753906 211.859375 L 181.449219 212.089844 L 181.269531 211.851562 L 187.949219 206.796875 L 189.476562 208.621094 L 189.230469 208.808594 C 188.796875 208.417969 188.457031 208.179688 188.21875 208.09375 C 187.984375 208.011719 187.71875 208 187.4375 208.070312 C 187.21875 208.136719 186.894531 208.332031 186.460938 208.65625 Z M 184.097656 210.464844 "/>
<path style=" stroke:none;fill-rule:nonzero;fill:rgb(0%,47.45098%,76.470588%);fill-opacity:1;" d="M 195.410156 199.769531 L 198.085938 202.324219 L 197.898438 202.496094 C 196.90625 201.902344 196.019531 201.636719 195.238281 201.695312 C 194.457031 201.757812 193.753906 202.070312 193.113281 202.65625 C 192.578125 203.140625 192.222656 203.71875 192.042969 204.382812 C 191.855469 205.042969 191.917969 205.785156 192.214844 206.601562 C 192.511719 207.414062 193.054688 208.265625 193.863281 209.140625 C 194.523438 209.871094 195.222656 210.390625 195.9375 210.703125 C 196.65625 211.027344 197.378906 211.113281 198.109375 210.96875 C 198.84375 210.824219 199.496094 210.472656 200.097656 209.929688 C 200.617188 209.453125 200.976562 208.917969 201.171875 208.332031 C 201.367188 207.746094 201.398438 206.90625 201.261719 205.800781 L 201.550781 205.75 C 201.808594 206.828125 201.816406 207.78125 201.578125 208.605469 C 201.347656 209.429688 200.863281 210.175781 200.125 210.847656 C 198.800781 212.0625 197.320312 212.515625 195.679688 212.199219 C 194.464844 211.960938 193.402344 211.351562 192.496094 210.355469 C 191.765625 209.558594 191.269531 208.65625 191.015625 207.652344 C 190.761719 206.660156 190.777344 205.683594 191.066406 204.738281 C 191.355469 203.796875 191.875 202.980469 192.621094 202.300781 C 193.199219 201.773438 193.90625 201.390625 194.730469 201.152344 C 194.976562 201.085938 195.128906 201.027344 195.203125 200.957031 C 195.316406 200.863281 195.367188 200.738281 195.382812 200.59375 C 195.390625 200.398438 195.324219 200.175781 195.195312 199.945312 Z M 195.410156 199.769531 "/>
<path style=" stroke:none;fill-rule:nonzero;fill:rgb(0%,47.45098%,76.470588%);fill-opacity:1;" d="M 201.695312 200.789062 L 205.070312 197.03125 L 202.757812 194.949219 C 202.34375 194.578125 202.046875 194.363281 201.875 194.296875 C 201.738281 194.246094 201.578125 194.253906 201.390625 194.3125 C 201.144531 194.398438 200.933594 194.535156 200.761719 194.730469 L 200.507812 195.019531 L 200.285156 194.824219 L 203.394531 191.363281 L 203.617188 191.558594 L 203.363281 191.847656 C 203.191406 192.035156 203.074219 192.265625 203.015625 192.511719 C 202.964844 192.699219 202.980469 192.867188 203.066406 193.03125 C 203.148438 193.191406 203.394531 193.453125 203.796875 193.8125 L 209.011719 198.5 C 209.421875 198.867188 209.71875 199.089844 209.898438 199.148438 C 210.03125 199.199219 210.183594 199.191406 210.371094 199.128906 C 210.628906 199.039062 210.839844 198.902344 211.007812 198.707031 L 211.265625 198.417969 L 211.484375 198.613281 L 208.382812 202.070312 L 208.164062 201.875 L 208.417969 201.585938 C 208.714844 201.253906 208.835938 200.921875 208.773438 200.601562 C 208.734375 200.386719 208.476562 200.066406 207.984375 199.625 L 205.519531 197.414062 L 202.148438 201.171875 L 204.613281 203.378906 C 205.019531 203.753906 205.316406 203.964844 205.496094 204.035156 C 205.632812 204.085938 205.792969 204.074219 205.980469 204.015625 C 206.226562 203.929688 206.4375 203.796875 206.609375 203.601562 L 206.871094 203.304688 L 207.09375 203.5 L 203.984375 206.964844 L 203.761719 206.769531 L 204.015625 206.480469 C 204.3125 206.148438 204.441406 205.816406 204.382812 205.496094 C 204.339844 205.28125 204.074219 204.960938 203.589844 204.527344 L 198.375 199.84375 C 197.957031 199.46875 197.667969 199.257812 197.492188 199.191406 C 197.355469 199.140625 197.203125 199.148438 197.015625 199.207031 C 196.761719 199.300781 196.546875 199.4375 196.378906 199.632812 L 196.121094 199.921875 L 195.902344 199.726562 L 199.011719 196.257812 L 199.234375 196.453125 L 198.96875 196.742188 C 198.800781 196.9375 198.679688 197.160156 198.621094 197.40625 C 198.578125 197.585938 198.59375 197.753906 198.679688 197.925781 C 198.765625 198.085938 199.011719 198.347656 199.410156 198.707031 Z M 201.695312 200.789062 "/>
<path style=" stroke:none;fill-rule:nonzero;fill:rgb(0%,47.45098%,76.470588%);fill-opacity:1;" d="M 202.878906 192.011719 L 204.628906 189.632812 L 215.140625 189.113281 L 210.09375 185.390625 C 209.558594 185 209.175781 184.804688 208.953125 184.828125 C 208.65625 184.855469 208.375 185.042969 208.128906 185.390625 L 207.910156 185.6875 L 207.671875 185.511719 L 209.914062 182.460938 L 210.152344 182.636719 L 209.921875 182.953125 C 209.648438 183.316406 209.566406 183.664062 209.675781 183.988281 C 209.742188 184.183594 210.023438 184.464844 210.507812 184.828125 L 217.882812 190.269531 L 217.714844 190.496094 L 206.414062 191.074219 L 211.800781 195.042969 C 212.335938 195.433594 212.71875 195.628906 212.9375 195.613281 C 213.246094 195.578125 213.515625 195.402344 213.761719 195.0625 L 213.992188 194.746094 L 214.230469 194.925781 L 211.988281 197.964844 L 211.75 197.789062 L 211.96875 197.480469 C 212.242188 197.109375 212.328125 196.761719 212.214844 196.4375 C 212.148438 196.242188 211.867188 195.960938 211.375 195.605469 L 205.28125 191.117188 C 204.796875 191.152344 204.46875 191.203125 204.273438 191.261719 C 204.074219 191.320312 203.847656 191.449219 203.582031 191.644531 C 203.457031 191.738281 203.292969 191.917969 203.105469 192.171875 Z M 202.878906 192.011719 "/>
<path style=" stroke:none;fill-rule:nonzero;fill:rgb(0%,47.45098%,76.470588%);fill-opacity:1;" d="M 212.402344 177.792969 C 213.132812 176.585938 214.222656 175.816406 215.675781 175.484375 C 217.128906 175.152344 218.539062 175.398438 219.914062 176.222656 C 221.332031 177.070312 222.234375 178.226562 222.632812 179.679688 C 223.035156 181.132812 222.847656 182.492188 222.082031 183.769531 C 221.308594 185.050781 220.203125 185.851562 218.769531 186.179688 C 217.332031 186.503906 215.886719 186.230469 214.441406 185.355469 C 212.964844 184.464844 212.0625 183.234375 211.730469 181.667969 C 211.441406 180.308594 211.664062 179.019531 212.402344 177.792969 M 212.820312 178.226562 C 212.316406 179.058594 212.226562 179.917969 212.539062 180.792969 C 212.929688 181.882812 213.875 182.875 215.351562 183.769531 C 216.871094 184.6875 218.242188 185.058594 219.449219 184.90625 C 220.375 184.777344 221.078125 184.3125 221.570312 183.488281 C 222.097656 182.613281 222.191406 181.6875 221.851562 180.699219 C 221.511719 179.722656 220.613281 178.789062 219.140625 177.90625 C 217.542969 176.945312 216.167969 176.546875 215.011719 176.699219 C 214.085938 176.835938 213.355469 177.34375 212.820312 178.226562 "/>
<path style=" stroke:none;fill-rule:nonzero;fill:rgb(0%,47.45098%,76.470588%);fill-opacity:1;" d="M 226.414062 168.644531 L 226.585938 168.429688 L 228.820312 170.5625 L 225.097656 178.117188 L 224.835938 177.988281 L 225.011719 177.625 C 225.21875 177.207031 225.226562 176.851562 225.046875 176.546875 C 224.945312 176.367188 224.613281 176.144531 224.054688 175.875 L 217.757812 172.773438 C 217.144531 172.476562 216.738281 172.347656 216.515625 172.414062 C 216.210938 172.5 215.972656 172.722656 215.785156 173.09375 L 215.605469 173.460938 L 215.34375 173.332031 L 217.519531 168.914062 L 217.78125 169.042969 C 217.519531 169.5625 217.390625 169.941406 217.390625 170.207031 C 217.390625 170.460938 217.441406 170.671875 217.5625 170.828125 C 217.671875 170.980469 218.027344 171.199219 218.605469 171.480469 L 224.734375 174.496094 C 225.132812 174.691406 225.421875 174.785156 225.609375 174.785156 C 225.734375 174.777344 225.855469 174.726562 225.964844 174.632812 C 226.074219 174.539062 226.277344 174.175781 226.585938 173.546875 L 226.941406 172.832031 C 227.308594 172.085938 227.511719 171.53125 227.546875 171.175781 C 227.585938 170.816406 227.527344 170.445312 227.367188 170.0625 C 227.222656 169.652344 226.898438 169.1875 226.414062 168.644531 "/>
<path style=" stroke:none;fill-rule:nonzero;fill:rgb(0%,47.45098%,76.470588%);fill-opacity:1;" d="M 221.292969 159.703125 C 221.800781 158.386719 222.746094 157.445312 224.121094 156.875 C 225.496094 156.296875 226.933594 156.304688 228.429688 156.890625 C 229.96875 157.484375 231.054688 158.472656 231.691406 159.839844 C 232.328125 161.207031 232.378906 162.585938 231.84375 163.960938 C 231.300781 165.355469 230.347656 166.332031 228.988281 166.902344 C 227.628906 167.460938 226.160156 167.4375 224.589844 166.824219 C 222.980469 166.195312 221.878906 165.140625 221.292969 163.648438 C 220.773438 162.339844 220.773438 161.03125 221.292969 159.703125 M 221.777344 160.0625 C 221.417969 160.96875 221.476562 161.828125 221.9375 162.636719 C 222.507812 163.648438 223.601562 164.460938 225.21875 165.089844 C 226.875 165.738281 228.285156 165.882812 229.449219 165.515625 C 230.332031 165.234375 230.953125 164.648438 231.300781 163.757812 C 231.675781 162.804688 231.605469 161.871094 231.105469 160.960938 C 230.605469 160.050781 229.550781 159.289062 227.953125 158.667969 C 226.21875 157.996094 224.792969 157.824219 223.679688 158.183594 C 222.785156 158.472656 222.15625 159.09375 221.777344 160.0625 "/>
<path style=" stroke:none;fill-rule:nonzero;fill:rgb(0%,47.45098%,76.470588%);fill-opacity:1;" d="M 225.828125 145.503906 L 229.210938 146.160156 L 229.132812 146.429688 C 228.234375 146.472656 227.519531 146.652344 226.976562 146.964844 C 226.195312 147.417969 225.667969 148.128906 225.394531 149.109375 C 225.023438 150.441406 225.269531 151.605469 226.125 152.59375 C 226.855469 153.425781 227.835938 154.011719 229.058594 154.359375 C 230.058594 154.640625 231.019531 154.707031 231.957031 154.546875 C 232.890625 154.394531 233.636719 154.054688 234.191406 153.535156 C 234.75 153.015625 235.125 152.429688 235.304688 151.769531 C 235.414062 151.386719 235.472656 150.996094 235.472656 150.613281 C 235.472656 150.222656 235.429688 149.839844 235.335938 149.449219 L 232.3125 148.597656 C 231.785156 148.453125 231.429688 148.394531 231.25 148.429688 C 231.0625 148.460938 230.910156 148.554688 230.773438 148.691406 C 230.648438 148.835938 230.519531 149.117188 230.398438 149.542969 L 230.113281 149.457031 L 231.25 145.402344 L 231.546875 145.488281 L 231.488281 145.683594 C 231.378906 146.082031 231.4375 146.398438 231.65625 146.617188 C 231.820312 146.769531 232.183594 146.933594 232.738281 147.09375 L 235.941406 147.996094 C 236.09375 148.675781 236.160156 149.328125 236.152344 149.941406 C 236.136719 150.5625 236.035156 151.222656 235.839844 151.929688 C 235.269531 153.953125 234.191406 155.300781 232.601562 155.992188 C 231.402344 156.5 230.171875 156.585938 228.90625 156.230469 C 227.980469 155.972656 227.164062 155.496094 226.441406 154.816406 C 225.582031 154.011719 225.011719 153.074219 224.734375 152.003906 C 224.503906 151.113281 224.527344 150.144531 224.824219 149.097656 C 224.9375 148.71875 225.0625 148.378906 225.207031 148.089844 C 225.363281 147.800781 225.617188 147.390625 225.988281 146.882812 C 226.175781 146.617188 226.289062 146.449219 226.3125 146.347656 C 226.339844 146.253906 226.320312 146.152344 226.246094 146.058594 C 226.175781 145.964844 226.007812 145.871094 225.753906 145.777344 Z M 225.828125 145.503906 "/>
<path style=" stroke:none;fill-rule:nonzero;fill:rgb(0%,47.45098%,76.470588%);fill-opacity:1;" d="M 227.605469 137.21875 L 228.226562 133.480469 L 228.515625 133.53125 L 228.480469 133.738281 C 228.453125 133.871094 228.480469 134.085938 228.566406 134.367188 C 228.640625 134.644531 228.777344 134.917969 228.964844 135.171875 C 229.160156 135.425781 229.484375 135.75 229.941406 136.160156 L 233.585938 139.421875 L 236.273438 139.863281 C 236.933594 139.972656 237.359375 139.964844 237.546875 139.847656 C 237.800781 139.675781 237.960938 139.378906 238.039062 138.945312 L 238.097656 138.597656 L 238.394531 138.648438 L 237.640625 143.203125 L 237.351562 143.152344 L 237.410156 142.769531 C 237.488281 142.320312 237.402344 141.96875 237.15625 141.734375 C 237.003906 141.589844 236.628906 141.46875 236.035156 141.367188 L 233.492188 140.949219 L 228.515625 143.152344 C 227.925781 143.414062 227.5625 143.59375 227.410156 143.695312 C 227.257812 143.796875 227.050781 144.027344 226.804688 144.382812 C 226.738281 144.476562 226.6875 144.628906 226.652344 144.832031 L 226.355469 144.78125 L 227.113281 140.195312 L 227.410156 140.246094 L 227.367188 140.484375 C 227.324219 140.730469 227.351562 140.96875 227.425781 141.195312 C 227.503906 141.425781 227.664062 141.554688 227.894531 141.597656 C 228.082031 141.628906 228.453125 141.519531 229 141.28125 L 232.820312 139.609375 L 229.863281 136.957031 C 229.421875 136.558594 229.074219 136.335938 228.835938 136.304688 C 228.691406 136.277344 228.554688 136.292969 228.421875 136.355469 C 228.292969 136.414062 228.183594 136.507812 228.097656 136.632812 C 228.011719 136.769531 227.9375 136.972656 227.894531 137.261719 Z M 227.605469 137.21875 "/>
<path style=" stroke:none;fill-rule:nonzero;fill:rgb(0%,47.45098%,76.470588%);fill-opacity:1;" d="M 20.257812 91.691406 C 20.257812 91.691406 20.308594 92.042969 20.640625 92.246094 C 20.972656 92.449219 22.144531 92.933594 22.578125 93.425781 C 24.0625 95.082031 24.25 96.714844 28.617188 102 C 29.390625 102.933594 32.839844 106.84375 33.222656 107.277344 C 33.367188 107.445312 34.183594 107.023438 34.191406 106.722656 C 34.199219 105.085938 34.304688 102.210938 34.449219 98.472656 C 34.625 94.121094 35.433594 90.0625 35.28125 88.691406 C 35.09375 87.019531 34.378906 85.644531 33.128906 86.601562 C 32.707031 86.925781 31.8125 87.078125 31.667969 86.507812 C 31.523438 85.941406 31.582031 81.675781 32.933594 78.445312 C 33.878906 76.183594 34.21875 74.0625 35.261719 74.164062 C 36.417969 74.273438 37.023438 79.625 37.210938 80.78125 C 37.464844 82.371094 37.457031 84.25 37.617188 85.414062 C 37.710938 86.109375 38.398438 84.820312 38.375 83.601562 C 38.304688 80.460938 39.019531 79.101562 39.054688 76.152344 C 39.085938 73.160156 36.222656 71.851562 35.28125 72.117188 C 33.980469 72.472656 32.511719 75.558594 31.449219 78.046875 C 30.242188 80.875 29.722656 82.644531 29.773438 83.46875 C 29.789062 83.730469 29.789062 83.882812 29.585938 83.339844 C 29.253906 82.464844 27.742188 78.699219 25.507812 77.476562 C 24.046875 76.679688 22.492188 78.242188 22.839844 78.589844 C 24.421875 80.222656 27.691406 84.648438 28.644531 87.597656 C 29.367188 89.804688 30.996094 88.34375 31.550781 88.199219 C 31.90625 88.105469 32.246094 88.277344 32.382812 88.777344 C 32.519531 89.28125 31.71875 93.96875 31.992188 96.933594 C 32.121094 98.335938 32.015625 101.328125 32.246094 103.070312 C 32.476562 104.8125 31.472656 103.308594 31.007812 102.664062 C 29.605469 100.714844 27.632812 96.894531 27.351562 96.347656 C 26.519531 94.675781 25.660156 92.703125 23.988281 92 C 22.304688 91.285156 20.257812 91.691406 20.257812 91.691406 "/>
<path style=" stroke:none;fill-rule:nonzero;fill:rgb(0%,47.45098%,76.470588%);fill-opacity:1;" d="M 59.597656 44.730469 C 59.4375 43.761719 59.894531 43.285156 60.515625 42.15625 C 62.226562 39.027344 62.617188 35.585938 62.945312 33.894531 C 63.074219 33.222656 62.257812 32.042969 61.824219 32.324219 C 61.101562 32.78125 59.777344 33.445312 59.285156 33.453125 C 58.800781 33.46875 58.402344 33.5625 58.691406 33.921875 C 58.980469 34.277344 59.257812 34.261719 59.632812 34.371094 C 60 34.480469 60.398438 34.839844 59.683594 36.164062 C 58.84375 37.71875 58.945312 36.726562 58.496094 35.664062 C 58.042969 34.609375 56.898438 33.417969 55.917969 32.839844 C 55.179688 32.398438 53.855469 33.820312 53.941406 34.429688 C 54.136719 35.808594 54.398438 36.4375 54.839844 37.828125 C 55.308594 39.316406 55.257812 39.734375 55.972656 41.882812 C 56.386719 43.121094 54.609375 45.332031 54.253906 46.222656 C 54.058594 46.726562 54.644531 46.914062 54.644531 46.914062 C 54.644531 46.914062 55.851562 46.742188 56.15625 46.480469 C 56.949219 45.808594 57.007812 46.011719 57.160156 46.574219 C 57.3125 47.125 58.410156 53.34375 58.410156 53.34375 C 58.628906 53.746094 60.03125 54.457031 60.441406 54.066406 C 62.054688 52.519531 62.292969 51.449219 62.648438 50.667969 C 62.964844 49.988281 63.109375 50.082031 63.277344 50.796875 C 63.363281 51.152344 64.09375 52.488281 64.222656 52.828125 C 64.355469 53.167969 65.863281 54.476562 65.980469 55.578125 C 66.046875 56.21875 63.566406 57.390625 63.566406 57.898438 C 63.566406 58.273438 64.816406 58.113281 65.300781 57.90625 C 65.921875 57.636719 66.253906 57.464844 67.238281 57.5 C 67.890625 57.527344 69.132812 58 69.785156 57.136719 C 70.59375 56.0625 69.53125 55.171875 69.34375 54.722656 C 69.167969 54.269531 66.234375 50.371094 66.234375 50.371094 C 67.355469 49.808594 68.757812 50.703125 69.675781 50.914062 C 70.375 51.085938 70.050781 51.832031 70.679688 51.621094 C 71.425781 51.355469 72.855469 51.867188 73.839844 51.160156 C 74.46875 50.710938 74.785156 49.511719 74.25 48.839844 C 73.710938 48.179688 73.832031 47.71875 70.96875 47.796875 C 68.097656 47.871094 65.945312 49.785156 65.945312 49.785156 L 64.757812 48.195312 C 63.8125 47.203125 64.238281 47.101562 64.304688 46.011719 C 64.382812 44.609375 62.785156 45.410156 61.910156 44.746094 C 61.390625 44.355469 61.058594 44.753906 61.058594 44.753906 C 60.710938 45.007812 60.796875 45.621094 60.957031 45.996094 C 61.171875 46.488281 61.09375 46.726562 61.535156 47.492188 C 61.988281 48.253906 61.308594 49.894531 61.1875 50.335938 C 61.078125 50.769531 59.921875 52.273438 59.84375 51.023438 C 59.777344 49.792969 59.761719 45.699219 59.597656 44.730469 M 63.21875 55.214844 C 62.675781 54.664062 61.945312 57.269531 60.378906 60.160156 C 59.929688 60.984375 58.851562 62.957031 58.375 62.691406 C 57.644531 62.292969 57.601562 63.957031 57.601562 63.957031 C 57.601562 63.957031 57.824219 64.738281 58.648438 64.925781 C 59.199219 65.054688 61.027344 64.007812 61.578125 63.015625 C 63.574219 59.421875 62.84375 58.859375 62.792969 57.90625 C 62.71875 56.480469 63.464844 55.460938 63.21875 55.214844 "/>
<path style=" stroke:none;fill-rule:nonzero;fill:rgb(0%,47.45098%,76.470588%);fill-opacity:1;" d="M 147 22.398438 C 149.371094 21.371094 150.058594 21.261719 150.867188 20.910156 C 151.785156 20.519531 154.402344 19.339844 155.21875 19.875 C 155.507812 20.070312 155.8125 21.429688 155.601562 21.992188 C 155.394531 22.507812 155.097656 23.207031 154.671875 23.816406 C 153.425781 25.628906 152.710938 25.8125 151.929688 26.730469 C 151.257812 27.523438 150.601562 28.523438 152.34375 27.835938 C 154.300781 27.054688 155.125 27.148438 155.796875 27.792969 C 156.765625 28.710938 156.59375 29.027344 156.339844 29.316406 C 156.085938 29.605469 152.320312 30.75 150.671875 31.582031 C 148.488281 32.6875 146.976562 34.074219 144.925781 35.203125 C 143.78125 35.832031 139.796875 35.859375 137.78125 35.085938 C 137.269531 34.890625 137.296875 33.121094 137.296875 33.121094 C 138.265625 32.789062 140.253906 32.40625 141.886719 31.644531 C 142.949219 31.152344 144.050781 31.023438 145.453125 29.78125 C 146.550781 28.824219 146.898438 28.269531 147.65625 27.71875 C 149.023438 26.707031 152.421875 22.882812 152.507812 22.578125 C 152.59375 22.269531 152.285156 22.1875 150.925781 22.765625 C 149.296875 23.460938 147.59375 22.976562 147.214844 22.917969 C 146.832031 22.855469 147 22.398438 147 22.398438 "/>
<path style=" stroke:none;fill-rule:nonzero;fill:rgb(0%,47.45098%,76.470588%);fill-opacity:1;" d="M 185.925781 39.980469 C 185.925781 39.980469 186.359375 39.640625 187.984375 41.042969 C 188.5 41.492188 193.761719 43.132812 194.117188 42.910156 C 195.144531 42.28125 197.941406 39.917969 199.460938 38.253906 C 199.996094 37.660156 199.460938 36.953125 200.558594 36.996094 C 201.65625 37.046875 202.734375 38.925781 201.800781 40.753906 C 200.871094 42.570312 199.605469 43.148438 199.019531 43.523438 C 198.433594 43.894531 198.832031 44.328125 199.972656 44.667969 C 202.46875 45.425781 204.085938 44.839844 204.730469 46.480469 C 204.925781 46.980469 202.902344 47.675781 202.902344 47.675781 C 201.890625 48.050781 200.140625 47.5 198.789062 47.140625 C 197.007812 46.667969 196.097656 46.445312 194.710938 47.550781 C 193.328125 48.65625 191.363281 49.914062 191.363281 49.914062 C 191.363281 49.914062 191.109375 50.335938 192.339844 52.929688 C 193.148438 54.628906 193.503906 56.105469 193.539062 57.03125 C 193.554688 57.753906 192.980469 58.691406 192.527344 58.988281 C 191.441406 59.699219 189.519531 58.078125 189.332031 55.308594 C 189.222656 53.675781 190.691406 52.640625 190.226562 50.804688 C 190.003906 49.929688 186.164062 53.523438 181.933594 53.761719 C 177.710938 54.007812 176.816406 52.996094 176.289062 52.148438 C 175.949219 51.59375 176.101562 51.101562 176.101562 51.101562 C 176.101562 51.101562 185.5625 48.6875 188.585938 46.667969 C 190.496094 45.382812 191.753906 45.085938 190.675781 44.660156 C 188.992188 44.007812 186.707031 43.03125 185.585938 41.550781 C 185.347656 41.21875 185.925781 39.980469 185.925781 39.980469 "/>
<path style=" stroke:none;fill-rule:nonzero;fill:rgb(0%,47.45098%,76.470588%);fill-opacity:1;" d="M 227.886719 83.152344 C 228.105469 83.171875 228.132812 82.269531 228.132812 82.269531 C 225.863281 79.832031 224.75 77.164062 224.339844 76.039062 C 223.796875 74.496094 222.71875 73.796875 222.71875 73.796875 C 222.71875 73.796875 221.707031 74.554688 220.96875 75.660156 C 220.238281 76.761719 221.105469 79.746094 221.75 80.058594 C 222.761719 80.542969 227.546875 83.136719 227.886719 83.152344 M 238.472656 100.589844 C 239.085938 100.191406 240.691406 98.625 240.34375 97.769531 C 239.992188 96.910156 237.011719 91.769531 234.886719 88.972656 C 232.761719 86.179688 232.644531 83.925781 232.414062 83.476562 C 231.785156 82.242188 230.542969 82.304688 230.265625 82.667969 C 230.265625 82.667969 228.871094 84.734375 227.359375 87.894531 C 227.144531 88.34375 228.257812 89.09375 230.621094 88.617188 C 231.234375 88.496094 231.625 88.980469 231.742188 89.238281 C 231.863281 89.492188 236.1875 94.742188 236.273438 95.082031 C 236.355469 95.421875 230.925781 91.34375 229.355469 90.230469 C 227.78125 89.109375 221.300781 83.179688 219.015625 82.261719 C 218.792969 82.175781 217.960938 82.542969 217.882812 82.660156 C 217.578125 83.160156 217.339844 83.511719 217.550781 83.859375 C 217.765625 84.207031 219.949219 86.210938 219.175781 86.3125 C 218.410156 86.417969 215.351562 86 215.15625 86.109375 C 214.960938 86.230469 214.816406 86.765625 214.519531 86.839844 C 214.519531 86.839844 212.226562 83.925781 210.753906 84.292969 C 209.886719 84.503906 208.988281 85.804688 208.988281 85.804688 C 208.988281 85.804688 207.679688 89.28125 208.230469 90.960938 C 208.792969 92.6875 210.882812 94.199219 211.824219 94.199219 C 212.445312 94.199219 213.933594 93.308594 213.933594 93.308594 C 213.933594 93.308594 217.101562 96.773438 217.714844 97.5625 C 217.96875 97.894531 219.269531 97.582031 219.386719 97.25 C 219.609375 96.65625 217.960938 91.886719 216.566406 89.933594 L 216.769531 89.296875 C 216.769531 89.296875 218.105469 90.054688 218.664062 90.265625 C 219.753906 90.679688 221.527344 90.570312 222.097656 90.128906 C 224.019531 88.652344 222.125 86.246094 222.125 86.246094 C 222.125 86.246094 228.070312 90.546875 235.015625 99.550781 C 235.683594 100.429688 238.023438 100.894531 238.472656 100.589844 M 216.015625 93.085938 C 215.9375 93.078125 214.554688 92.328125 214.585938 92.203125 C 214.679688 91.871094 214.925781 91.632812 214.925781 91.632812 C 215.140625 91.558594 216.210938 93.113281 216.015625 93.085938 M 210.933594 90.410156 C 210.78125 90.394531 210.542969 90.128906 210.507812 89.992188 C 210.433594 89.738281 210.5 89.355469 210.59375 89.152344 C 210.679688 88.957031 210.984375 87.929688 211.332031 87.902344 C 211.671875 87.867188 212.699219 88.386719 212.769531 88.796875 C 212.820312 89.117188 211.46875 90.453125 210.933594 90.410156 "/>
<path style=" stroke:none;fill-rule:nonzero;fill:rgb(0%,47.45098%,76.470588%);fill-opacity:1;" d="M 113.761719 12.839844 C 113.421875 12.398438 112.953125 11.597656 111.5 11.980469 C 111.304688 12.039062 111.101562 12.074219 110.878906 12.152344 C 109.171875 12.710938 106.539062 14.164062 105.296875 14.886719 C 104.046875 15.617188 101.574219 17.742188 101.109375 18.03125 C 100.980469 18.109375 100.886719 18.140625 100.835938 18.148438 C 100.769531 18.148438 100.777344 18.148438 100.757812 18.132812 L 100.757812 18.125 C 100.757812 18.125 100.726562 17.359375 100.589844 17.035156 C 100.445312 16.722656 99.976562 16.628906 99.800781 16.664062 C 99.585938 16.707031 99.222656 16.851562 98.964844 16.96875 C 97.242188 17.75 93.835938 20.777344 93.773438 20.929688 C 93.691406 21.140625 94.089844 21.386719 94.378906 21.371094 C 94.800781 21.335938 96.152344 21.371094 97.054688 21.191406 C 97.34375 21.132812 97.5625 21.054688 97.667969 20.894531 C 97.914062 20.460938 99.476562 19.390625 99.695312 19.246094 C 99.839844 19.28125 100.4375 19.441406 100.589844 19.757812 C 100.597656 19.773438 100.605469 19.816406 100.625 19.867188 C 100.777344 20.503906 100.554688 22.976562 100.4375 23.019531 C 100.429688 23.019531 100.292969 23.078125 100.273438 23.078125 C 100.003906 23.164062 99.765625 22.746094 99.433594 22.804688 C 99.289062 22.832031 98.6875 23.054688 98.378906 23.105469 C 97.683594 23.222656 96.867188 22.015625 96.484375 22.449219 C 96.246094 22.703125 95.695312 24.003906 95.492188 24.53125 C 95.339844 24.972656 92.609375 26.621094 92.609375 26.628906 C 92.609375 26.628906 92.433594 26.65625 92.738281 27.082031 C 93.195312 27.726562 94.191406 27.605469 94.566406 27.539062 C 94.589844 27.53125 94.625 27.539062 94.667969 27.625 C 94.574219 28.140625 94.582031 28.371094 94.640625 28.660156 C 94.742188 29.195312 94.980469 29.492188 95.089844 29.738281 C 93.925781 31.914062 92.007812 34.847656 92.007812 34.847656 C 92.007812 34.847656 92.117188 35.433594 92.363281 35.5 C 92.578125 35.507812 92.703125 35.527344 92.78125 35.542969 C 92.78125 35.542969 91.132812 36.300781 90.996094 36.410156 C 90.859375 36.519531 90.734375 37.878906 90.824219 38.6875 C 90.859375 38.992188 91.140625 39.257812 91.445312 39.164062 C 96.503906 37.351562 99.035156 31.515625 99.085938 31.03125 C 99.152344 30.605469 99.136719 30.359375 99 30.121094 C 98.898438 29.945312 98.746094 29.960938 98.636719 30.121094 C 97.894531 31.242188 94.972656 33.914062 94.589844 34.242188 C 94.371094 34.4375 93.605469 34.695312 93.699219 34.5 C 94.148438 33.5625 96.648438 30.886719 97.785156 29.671875 C 98.871094 28.507812 100.582031 24.820312 100.800781 24.34375 C 100.988281 24.371094 101.644531 24.4375 102.203125 24.386719 C 102.757812 24.949219 103.714844 24.929688 103.980469 24.921875 L 103.996094 24.988281 C 104.097656 25.492188 104.386719 27.300781 103.792969 28.472656 C 103.164062 29.714844 102.96875 30.445312 103.0625 30.972656 C 103.105469 31.191406 103.207031 31.378906 103.351562 31.542969 C 103.671875 31.914062 104.269531 32.050781 104.71875 31.964844 C 104.929688 31.921875 105.117188 31.820312 105.21875 31.660156 C 105.746094 30.726562 104.957031 29.289062 106.042969 28.601562 C 106.359375 28.40625 106.902344 28.515625 106.867188 29.042969 C 106.851562 29.390625 106.539062 29.902344 106.207031 30.769531 C 105.320312 33.078125 105.160156 32.984375 104.414062 34.117188 C 104.140625 34.515625 103.75 34.667969 104.074219 35.136719 C 104.148438 35.238281 104.558594 35.601562 104.652344 35.714844 C 105 36.128906 105.363281 36.035156 105.949219 35.917969 C 106.382812 35.832031 108 35.273438 108.320312 35.203125 C 109.070312 35.058594 109.730469 35.042969 110.285156 34.941406 C 110.429688 34.914062 110.554688 34.878906 110.683594 34.828125 C 110.949219 34.703125 111.558594 33.613281 111.484375 33.097656 C 111.472656 33.027344 111.253906 32.832031 111.125 32.789062 C 109.742188 32.324219 107.445312 32.664062 107.472656 32.484375 C 107.496094 32.304688 107.871094 31.636719 108.96875 30.164062 C 109.925781 28.890625 110.15625 28.253906 110.039062 27.648438 C 109.980469 27.378906 109.375 25.882812 108.484375 26 C 107.328125 26.164062 106.589844 26.273438 106.46875 25.90625 C 106.238281 25.203125 107.15625 23.605469 107.292969 21.964844 C 107.371094 21.074219 107.226562 20.359375 107.351562 20.199219 C 107.378906 20.15625 107.453125 20.121094 107.582031 20.097656 C 107.820312 20.042969 108.210938 20.042969 108.671875 19.953125 C 108.78125 19.925781 109.019531 19.859375 109.136719 19.832031 C 110.046875 19.636719 110.566406 18.4375 110.871094 17.953125 C 111.535156 16.910156 114.058594 14.234375 113.820312 13.050781 C 113.820312 12.984375 113.8125 12.90625 113.761719 12.839844 M 103.980469 22.722656 C 103.179688 23.054688 103.003906 23 102.953125 22.535156 C 102.902344 22.066406 103.128906 21.242188 103.070312 20.742188 C 103.070312 20.742188 104.125 21.054688 104.855469 21.039062 C 105.117188 21.039062 104.777344 22.390625 103.980469 22.722656 M 104.785156 19.152344 C 104.539062 19.203125 102.890625 20.300781 102.890625 20.300781 L 102.433594 19.273438 C 102.6875 19.050781 104.804688 17.503906 104.804688 17.503906 C 105.136719 18.304688 105.035156 19.101562 104.785156 19.152344 M 110.0625 15.21875 L 107.949219 18.53125 C 107.949219 18.53125 107.496094 18.878906 107.234375 18.667969 C 106.980469 18.457031 106.09375 16.382812 106.09375 16.382812 C 106.519531 15.90625 109.078125 14.632812 109.078125 14.632812 C 110.496094 14.574219 110.0625 15.21875 110.0625 15.21875 "/>
<path style=" stroke:none;fill-rule:nonzero;fill:rgb(0%,47.45098%,76.470588%);fill-opacity:1;" d="M 101.167969 207.476562 C 84.070312 202.273438 68.714844 191.5 57.917969 177.148438 C 46.75 162.3125 40.855469 144.621094 40.855469 125.996094 C 40.855469 79.050781 79.058594 40.847656 126.003906 40.847656 C 172.960938 40.847656 211.164062 79.050781 211.164062 125.996094 C 211.164062 162.769531 187.726562 195.257812 152.847656 206.835938 L 151.996094 204.273438 C 185.765625 193.0625 208.460938 161.605469 208.460938 125.996094 C 208.460938 80.535156 171.472656 43.546875 126.011719 43.546875 C 80.542969 43.546875 43.566406 80.535156 43.566406 125.996094 C 43.566406 162.550781 67.035156 194.253906 101.972656 204.882812 Z M 101.167969 207.476562 "/>
<path style=" stroke:none;fill-rule:nonzero;fill:rgb(0%,47.45098%,76.470588%);fill-opacity:1;" d="M 109.84375 202.097656 C 109.65625 203.796875 108.550781 204.585938 106.46875 204.484375 L 106.324219 204.476562 L 106.324219 206.039062 L 109.410156 206.039062 L 109.410156 215.148438 L 111.328125 215.148438 L 111.328125 201.96875 L 109.851562 201.96875 Z M 109.84375 202.097656 "/>
<path style=" stroke:none;fill-rule:nonzero;fill:rgb(0%,47.45098%,76.470588%);fill-opacity:1;" d="M 120.71875 201.96875 C 118.015625 202.070312 116.574219 203.609375 116.429688 206.558594 C 116.519531 209.257812 117.914062 210.695312 120.582031 210.847656 C 121.867188 210.804688 122.808594 210.398438 123.394531 209.640625 C 122.988281 212.453125 122.042969 213.882812 120.574219 213.882812 L 120.5 213.882812 C 119.273438 213.882812 118.585938 213.234375 118.40625 211.917969 L 118.390625 211.800781 L 116.546875 211.800781 L 116.5625 211.945312 C 116.757812 214.164062 118.085938 215.316406 120.5 215.367188 C 123.53125 215.265625 125.171875 212.8125 125.359375 208.054688 C 125.273438 204.066406 123.710938 202.019531 120.71875 201.96875 M 120.855469 209.148438 C 119.148438 209.183594 118.339844 208.324219 118.339844 206.488281 C 118.433594 204.738281 119.207031 203.847656 120.71875 203.746094 C 122.316406 203.796875 123.113281 204.644531 123.167969 206.328125 C 123.125 208.136719 122.367188 209.054688 120.855469 209.148438 "/>
<path style=" stroke:none;fill-rule:nonzero;fill:rgb(0%,47.45098%,76.470588%);fill-opacity:1;" d="M 132.039062 206.566406 C 131.214844 206.566406 130.449219 206.777344 129.777344 207.203125 L 130.21875 204.109375 L 135.683594 204.109375 L 135.683594 202.265625 L 128.757812 202.265625 L 127.804688 209.34375 L 127.789062 209.488281 L 129.367188 209.574219 L 129.410156 209.523438 C 129.996094 208.75 130.789062 208.359375 131.730469 208.359375 C 133.429688 208.453125 134.304688 209.34375 134.398438 211.078125 C 134.261719 212.835938 133.429688 213.753906 131.882812 213.898438 C 130.269531 213.898438 129.402344 213.210938 129.226562 211.792969 L 129.207031 211.671875 L 127.289062 211.671875 L 127.304688 211.824219 C 127.550781 214.136719 128.996094 215.34375 131.59375 215.386719 C 134.628906 215.335938 136.269531 213.824219 136.464844 210.867188 C 136.277344 208.25 134.789062 206.8125 132.039062 206.566406 "/>
<path style=" stroke:none;fill-rule:nonzero;fill:rgb(0%,47.45098%,76.470588%);fill-opacity:1;" d="M 143.433594 206.710938 C 142.105469 206.710938 141.128906 207.152344 140.507812 208.027344 C 140.746094 205.273438 141.734375 203.839844 143.433594 203.753906 C 144.613281 203.753906 145.292969 204.347656 145.523438 205.578125 L 145.539062 205.691406 L 147.382812 205.691406 L 147.367188 205.546875 C 147.121094 203.328125 145.792969 202.128906 143.421875 201.984375 C 140.296875 202.078125 138.65625 204.46875 138.5625 209.082031 C 138.5625 211.007812 138.886719 212.53125 139.523438 213.601562 C 140.3125 214.730469 141.476562 215.335938 143 215.378906 C 143.09375 215.378906 143.175781 215.386719 143.261719 215.386719 C 144.691406 215.386719 145.726562 215.003906 146.328125 214.265625 C 147.214844 213.339844 147.65625 212.214844 147.65625 210.941406 C 147.554688 208.324219 146.132812 206.90625 143.433594 206.710938 M 143.289062 213.804688 C 141.628906 213.761719 140.78125 212.863281 140.695312 211.078125 C 140.789062 209.328125 141.613281 208.453125 143.21875 208.410156 C 144.773438 208.460938 145.574219 209.308594 145.667969 210.992188 C 145.566406 212.792969 144.792969 213.71875 143.289062 213.804688 "/>
</g>
</svg>
